<?xml version="1.0" encoding="utf-8"?>
<!-- Svg Vector Icons : http://www.onlinewebfonts.com/icon -->
<!DOCTYPE svg PUBLIC "-//W3C//DTD SVG 1.1//EN" "http://www.w3.org/Graphics/SVG/1.1/DTD/svg11.dtd">
<svg version="1.1" xmlns="http://www.w3.org/2000/svg" xmlns:xlink="http://www.w3.org/1999/xlink" x="0px" y="0px" viewBox="0 0 256 256" enable-background="new 0 0 256 256" xml:space="preserve">
<metadata> Svg Vector Icons : http://www.onlinewebfonts.com/icon </metadata>
<g><g><path fill="#000000" d="M147.2,65.6c15.3,0,27.8-12.5,27.8-27.8S162.5,10,147.2,10s-27.8,12.5-27.8,27.8S131.8,65.6,147.2,65.6z M147.2,19.9c9.9,0,17.9,8,17.9,17.9c0,9.9-8,17.9-17.9,17.9c-9.9,0-17.9-8-17.9-17.9C129.2,27.9,137.3,19.9,147.2,19.9z"/><path fill="#000000" d="M176.3,198.3l-7.7-16.5c-0.7-1.4-1.9-2.4-3.4-2.7c-1.5-0.3-3.1,0.1-4.3,1.1l-17,14.5c0,0,0,0,0-0.1l19.9-94.4c1-9.7-0.5-16.5-4.4-20.8c-2.7-3-6.5-4.6-11-4.6c-4.2,0-7.6,1.4-7.5,1.4c-24.9,7.9-58.6,37.4-60,38.7c-1.4,1.3-2,3.3-1.5,5.1l5.2,18.1c0.4,1.5,1.6,2.8,3.2,3.3c1.5,0.5,3.2,0.3,4.5-0.7l14.7-10.7l-14.4,70.4c-4.3,17.6-3.6,30.6,1.9,38.6c4.2,6.1,9.7,7,10.3,7c0.2,0,0.4,0,0.6,0c0,0,0.1,0,0.1,0c28.3-0.6,68.2-40.4,69.9-42.1C176.8,202.4,177.2,200.2,176.3,198.3z M105.8,236.1c-0.6-0.2-2.2-1-3.5-3.1c-2-3.2-4.7-11.4-0.1-30.5l17-83c0.4-2-0.5-4-2.2-5.2c-0.8-0.5-1.8-0.8-2.7-0.8c-1,0-2,0.3-2.9,0.9l-19.3,14l-2.4-8.3c8-6.7,34.8-28.5,54.5-34.8c0,0,2-0.8,4.1-0.8c2.2,0,3.1,0.8,3.6,1.3c1.1,1.2,2.8,4.5,2,12.7l-19.8,93.8c-0.7,3.3-1.6,9.4,1.1,12.9c2.9,3.6,7.9,3.4,13.2-1.7l13.8-11.7l3.5,7.4C153.5,211.2,124.7,235.2,105.8,236.1z"/></g></g>
</svg>