<svg width="148" height="121" viewBox="0 0 148 121" fill="none" xmlns="http://www.w3.org/2000/svg">
<mask id="mask0_44_2109" style="mask-type:luminance" maskUnits="userSpaceOnUse" x="0" y="0" width="148" height="121">
<path d="M27.0197 1.48958L25.9364 2.09375L25.9781 3.34896C26.1968 14.4323 26.6291 25.7292 27.0197 36.6406C27.6656 53.3958 28.275 70.7135 28.2333 87.5938C25.6343 87.724 23.3375 87.6823 21.8218 87.6406H21.7802C15.8062 87.5938 10.9156 89.5417 7.23328 93.4792C-0.860466 102.094 0.00411673 117.073 0.0457834 117.724L0.175992 119.63L54.5093 119.979H56.5874L147.322 120.536L146.629 25.9063L143.212 25.7292L141.218 25.6458H141.134L136.587 25.5573L91.3062 28.4583L91.2177 30.276C90.9572 34.0885 89.6604 37.4219 88.0145 40.1458L79.0562 39.9323L63.5562 38.0677C62.6031 37.9375 61.8687 37.2031 61.7802 36.2083L60.9156 27.9844C60.6968 25.5573 59.051 23.526 56.7593 22.7448L49.4416 20.2344C48.6656 19.974 48.0979 19.1979 48.0562 18.3281L47.7958 9.10938L47.6239 8.71875C45.9781 5.25521 42.0822 2.14063 37.6656 0.755208C36.0562 0.25 34.452 0 32.926 0C30.7645 0 28.7437 0.500001 27.0197 1.48958ZM31.1291 36.5104C30.7437 26.0365 30.3531 15.2552 30.1343 4.60417C31.9104 3.95833 34.1187 3.95833 36.4104 4.69271C39.5718 5.6875 42.4312 7.85417 43.6864 10.1458L43.9468 18.4583C43.9885 21.0104 45.676 23.3073 48.0979 24.1302L55.4624 26.6406C56.1968 26.901 56.7593 27.5938 56.801 28.3698L57.6656 36.6406C57.9729 39.5417 60.1812 41.7917 63.077 42.1406L78.7489 44.0885L85.202 44.2188C84.8531 44.6042 84.5093 44.9948 84.2072 45.3438C82.3427 47.375 79.8322 49.0208 76.5875 50.3646C68.1447 53.8698 64.9833 63.7396 64.7697 64.5625C60.6552 76.8594 47.926 83.3073 47.7958 83.349L47.6708 83.4375L47.4937 83.5677C44.4624 85.8177 38.1864 86.901 32.3843 87.3802C32.3843 70.4531 31.7802 53.1771 31.1291 36.5104ZM68.6656 65.8177L68.7072 65.776C68.7072 65.6875 71.3895 56.9896 78.1864 54.1719C81.9989 52.6146 84.9416 50.625 87.2333 48.1563C90.3947 44.7344 94.1604 39.3698 95.1135 32.3542L136.671 29.7135H138.707C137.926 34.6927 135.634 39.8438 131.822 45.0833C129.791 47.8958 127.02 50.2344 123.686 51.8802C123.035 52.224 122.343 52.5729 121.65 52.8333C121.348 52.9635 121.046 53.0938 120.785 53.2656C119.098 54.0469 117.712 55.125 116.629 56.2552C115.504 57.3802 114.723 58.5052 114.207 59.3698C113.686 60.2344 113.468 60.8385 113.426 60.8854L113.337 61.0104C113.035 61.9688 112.692 62.875 112.259 63.7396C111.129 66.3802 109.66 68.7188 108.056 70.7969C107.452 71.6615 106.801 72.4844 106.108 73.2188C104.681 74.9115 103.254 76.2969 101.957 77.3802C99.4833 79.5885 97.6239 80.7552 97.5822 80.7969L97.4104 80.8854C92.2125 84.7344 77.15 83.1771 71.8218 82.224L71.6083 82.1823L56.1968 82.7917C60.6135 79.2813 66.1083 73.6563 68.6656 65.8177ZM99.7906 84.2604C100.957 83.526 112.78 75.8177 117.233 62.3958C117.452 61.9688 119.27 58.2448 123.207 56.6823C128.145 54.651 132.301 51.4896 135.202 47.5052C139.098 42.099 141.567 36.7292 142.561 31.4896L143.166 116.38L56.6291 115.818L56.8895 86.8594L71.3062 86.3385C72.3843 86.5104 76.9729 87.2031 82.3427 87.4219C83.2749 87.4583 84.176 87.474 85.0458 87.474C91.8947 87.474 96.8322 86.4115 99.7906 84.2604ZM32.775 91.4896C40.7854 90.8385 46.5406 89.3281 49.7906 86.9896C50.2229 86.7708 51.301 86.1667 52.7749 85.2552L52.4729 115.818L4.16037 115.516C4.20203 111.49 4.89474 101.969 10.2645 96.2969C13.077 93.2656 16.9729 91.75 21.7385 91.75C21.9364 91.7708 22.9208 91.8021 24.426 91.8021C26.4729 91.8021 29.4833 91.7396 32.775 91.4896Z" fill="white"/>
</mask>
<g mask="url(#mask0_44_2109)">
<path d="M-0.860474 0V120.536H147.322V0H-0.860474Z" fill="url(#paint0_linear_44_2109)"/>
</g>
<defs>
<linearGradient id="paint0_linear_44_2109" x1="-0.860932" y1="60.2702" x2="147.322" y2="60.2702" gradientUnits="userSpaceOnUse">
<stop/>
<stop offset="0.0078125"/>
<stop offset="0.0117188" stop-color="#000101"/>
<stop offset="0.015625" stop-color="#000202"/>
<stop offset="0.0195312" stop-color="#000302"/>
<stop offset="0.0234375" stop-color="#000403"/>
<stop offset="0.0273438" stop-color="#000504"/>
<stop offset="0.03125" stop-color="#000604"/>
<stop offset="0.0351562" stop-color="#000705"/>
<stop offset="0.0390625" stop-color="#000706"/>
<stop offset="0.0429688" stop-color="#000806"/>
<stop offset="0.046875" stop-color="#000907"/>
<stop offset="0.0507813" stop-color="#000A08"/>
<stop offset="0.0546875" stop-color="#000B08"/>
<stop offset="0.0585938" stop-color="#000C09"/>
<stop offset="0.0625" stop-color="#000D0A"/>
<stop offset="0.0664062" stop-color="#000D0A"/>
<stop offset="0.0703125" stop-color="#000E0B"/>
<stop offset="0.0742188" stop-color="#000F0C"/>
<stop offset="0.078125" stop-color="#00100C"/>
<stop offset="0.0820312" stop-color="#00110D"/>
<stop offset="0.0859375" stop-color="#00120E"/>
<stop offset="0.0898438" stop-color="#00130E"/>
<stop offset="0.09375" stop-color="#00140F"/>
<stop offset="0.0976563" stop-color="#001410"/>
<stop offset="0.101563" stop-color="#001510"/>
<stop offset="0.105469" stop-color="#001611"/>
<stop offset="0.109375" stop-color="#001711"/>
<stop offset="0.113281" stop-color="#001812"/>
<stop offset="0.117188" stop-color="#001913"/>
<stop offset="0.121094" stop-color="#001A13"/>
<stop offset="0.125" stop-color="#001A14"/>
<stop offset="0.128906" stop-color="#001B15"/>
<stop offset="0.132812" stop-color="#001C15"/>
<stop offset="0.136719" stop-color="#001D16"/>
<stop offset="0.140625" stop-color="#001E17"/>
<stop offset="0.144531" stop-color="#001F17"/>
<stop offset="0.148438" stop-color="#002018"/>
<stop offset="0.152344" stop-color="#002119"/>
<stop offset="0.15625" stop-color="#002119"/>
<stop offset="0.160156" stop-color="#00221A"/>
<stop offset="0.164062" stop-color="#00231B"/>
<stop offset="0.167969" stop-color="#00241B"/>
<stop offset="0.171875" stop-color="#00251C"/>
<stop offset="0.175781" stop-color="#00261D"/>
<stop offset="0.179688" stop-color="#00271D"/>
<stop offset="0.183594" stop-color="#00281E"/>
<stop offset="0.1875" stop-color="#00281F"/>
<stop offset="0.191406" stop-color="#00291F"/>
<stop offset="0.195313" stop-color="#002A20"/>
<stop offset="0.199219" stop-color="#002B21"/>
<stop offset="0.203125" stop-color="#002C21"/>
<stop offset="0.207031" stop-color="#002D22"/>
<stop offset="0.210938" stop-color="#002E23"/>
<stop offset="0.214844" stop-color="#002E23"/>
<stop offset="0.21875" stop-color="#002F24"/>
<stop offset="0.222656" stop-color="#003025"/>
<stop offset="0.226562" stop-color="#003125"/>
<stop offset="0.230469" stop-color="#003226"/>
<stop offset="0.234375" stop-color="#003327"/>
<stop offset="0.238281" stop-color="#003427"/>
<stop offset="0.242188" stop-color="#003528"/>
<stop offset="0.246094" stop-color="#003529"/>
<stop offset="0.25" stop-color="#003629"/>
<stop offset="0.253906" stop-color="#00372A"/>
<stop offset="0.257812" stop-color="#00382B"/>
<stop offset="0.261719" stop-color="#00392B"/>
<stop offset="0.265625" stop-color="#003A2C"/>
<stop offset="0.269531" stop-color="#003B2D"/>
<stop offset="0.273437" stop-color="#003B2D"/>
<stop offset="0.277344" stop-color="#003C2E"/>
<stop offset="0.28125" stop-color="#003D2F"/>
<stop offset="0.285156" stop-color="#003E2F"/>
<stop offset="0.289062" stop-color="#003F30"/>
<stop offset="0.292969" stop-color="#004031"/>
<stop offset="0.296875" stop-color="#004131"/>
<stop offset="0.300781" stop-color="#004232"/>
<stop offset="0.304688" stop-color="#004233"/>
<stop offset="0.308594" stop-color="#004333"/>
<stop offset="0.3125" stop-color="#004434"/>
<stop offset="0.316406" stop-color="#004534"/>
<stop offset="0.320312" stop-color="#004635"/>
<stop offset="0.324219" stop-color="#004736"/>
<stop offset="0.328125" stop-color="#004836"/>
<stop offset="0.332031" stop-color="#004937"/>
<stop offset="0.335938" stop-color="#004938"/>
<stop offset="0.339844" stop-color="#004A38"/>
<stop offset="0.34375" stop-color="#004B39"/>
<stop offset="0.347656" stop-color="#004C3A"/>
<stop offset="0.351562" stop-color="#004D3A"/>
<stop offset="0.355469" stop-color="#004E3B"/>
<stop offset="0.359375" stop-color="#004F3C"/>
<stop offset="0.363281" stop-color="#004F3C"/>
<stop offset="0.367188" stop-color="#00503D"/>
<stop offset="0.371094" stop-color="#00513E"/>
<stop offset="0.375" stop-color="#00523E"/>
<stop offset="0.378906" stop-color="#00533F"/>
<stop offset="0.382813" stop-color="#005440"/>
<stop offset="0.386719" stop-color="#005540"/>
<stop offset="0.390625" stop-color="#005641"/>
<stop offset="0.394531" stop-color="#005642"/>
<stop offset="0.398438" stop-color="#005742"/>
<stop offset="0.402344" stop-color="#005843"/>
<stop offset="0.40625" stop-color="#005944"/>
<stop offset="0.410156" stop-color="#005A44"/>
<stop offset="0.414063" stop-color="#005B45"/>
<stop offset="0.417969" stop-color="#005C46"/>
<stop offset="0.421875" stop-color="#005C46"/>
<stop offset="0.425781" stop-color="#005D47"/>
<stop offset="0.429688" stop-color="#005E48"/>
<stop offset="0.433594" stop-color="#005F48"/>
<stop offset="0.4375" stop-color="#006049"/>
<stop offset="0.441406" stop-color="#00614A"/>
<stop offset="0.445312" stop-color="#00624A"/>
<stop offset="0.449219" stop-color="#00634B"/>
<stop offset="0.453125" stop-color="#00634C"/>
<stop offset="0.457031" stop-color="#00644C"/>
<stop offset="0.460938" stop-color="#00654D"/>
<stop offset="0.464844" stop-color="#00664E"/>
<stop offset="0.46875" stop-color="#00674E"/>
<stop offset="0.472656" stop-color="#00684F"/>
<stop offset="0.476562" stop-color="#006950"/>
<stop offset="0.480469" stop-color="#006A50"/>
<stop offset="0.484375" stop-color="#006A51"/>
<stop offset="0.488281" stop-color="#006B52"/>
<stop offset="0.492188" stop-color="#006C52"/>
<stop offset="0.496094" stop-color="#006D53"/>
<stop offset="0.5" stop-color="#006E54"/>
<stop offset="0.503906" stop-color="#006F54"/>
<stop offset="0.507813" stop-color="#007055"/>
<stop offset="0.511719" stop-color="#007055"/>
<stop offset="0.515625" stop-color="#007156"/>
<stop offset="0.519531" stop-color="#007257"/>
<stop offset="0.523438" stop-color="#007357"/>
<stop offset="0.527344" stop-color="#007458"/>
<stop offset="0.53125" stop-color="#007559"/>
<stop offset="0.535156" stop-color="#007659"/>
<stop offset="0.539062" stop-color="#00775A"/>
<stop offset="0.542969" stop-color="#00775B"/>
<stop offset="0.546875" stop-color="#00785B"/>
<stop offset="0.550781" stop-color="#00795C"/>
<stop offset="0.554688" stop-color="#007A5D"/>
<stop offset="0.558594" stop-color="#007B5D"/>
<stop offset="0.5625" stop-color="#007C5E"/>
<stop offset="0.566406" stop-color="#007D5F"/>
<stop offset="0.570312" stop-color="#007D5F"/>
<stop offset="0.574219" stop-color="#007E60"/>
<stop offset="0.578125" stop-color="#007F61"/>
<stop offset="0.582031" stop-color="#008061"/>
<stop offset="0.585938" stop-color="#008162"/>
<stop offset="0.589844" stop-color="#008263"/>
<stop offset="0.59375" stop-color="#008363"/>
<stop offset="0.597656" stop-color="#008464"/>
<stop offset="0.601562" stop-color="#008465"/>
<stop offset="0.605469" stop-color="#008565"/>
<stop offset="0.609375" stop-color="#008666"/>
<stop offset="0.613281" stop-color="#008767"/>
<stop offset="0.617188" stop-color="#008867"/>
<stop offset="0.621094" stop-color="#008968"/>
<stop offset="0.625" stop-color="#008A69"/>
<stop offset="0.628906" stop-color="#008B69"/>
<stop offset="0.632812" stop-color="#008B6A"/>
<stop offset="0.636719" stop-color="#008C6B"/>
<stop offset="0.640625" stop-color="#008D6B"/>
<stop offset="0.644531" stop-color="#008E6C"/>
<stop offset="0.648438" stop-color="#008F6D"/>
<stop offset="0.652344" stop-color="#00906D"/>
<stop offset="0.65625" stop-color="#00916E"/>
<stop offset="0.660156" stop-color="#00916F"/>
<stop offset="0.664062" stop-color="#00926F"/>
<stop offset="0.667969" stop-color="#009370"/>
<stop offset="0.671875" stop-color="#009471"/>
<stop offset="0.675781" stop-color="#009571"/>
<stop offset="0.679688" stop-color="#009672"/>
<stop offset="0.683594" stop-color="#009773"/>
<stop offset="0.6875" stop-color="#009873"/>
<stop offset="0.691406" stop-color="#009874"/>
<stop offset="0.695312" stop-color="#009975"/>
<stop offset="0.699219" stop-color="#009A75"/>
<stop offset="0.703125" stop-color="#009B76"/>
<stop offset="0.707031" stop-color="#009C76"/>
<stop offset="0.710938" stop-color="#009D77"/>
<stop offset="0.714844" stop-color="#009E78"/>
<stop offset="0.71875" stop-color="#009E78"/>
<stop offset="0.722656" stop-color="#009F79"/>
<stop offset="0.726562" stop-color="#00A07A"/>
<stop offset="0.730469" stop-color="#00A17A"/>
<stop offset="0.734375" stop-color="#00A27B"/>
<stop offset="0.738281" stop-color="#00A37C"/>
<stop offset="0.742188" stop-color="#00A47C"/>
<stop offset="0.746094" stop-color="#00A57D"/>
<stop offset="0.75" stop-color="#00A57E"/>
<stop offset="0.753906" stop-color="#00A67E"/>
<stop offset="0.757812" stop-color="#00A77F"/>
<stop offset="0.761719" stop-color="#00A880"/>
<stop offset="0.765625" stop-color="#00A980"/>
<stop offset="0.769531" stop-color="#00AA81"/>
<stop offset="0.773438" stop-color="#00AB82"/>
<stop offset="0.777344" stop-color="#00AC82"/>
<stop offset="0.78125" stop-color="#00AC83"/>
<stop offset="0.785156" stop-color="#00AD84"/>
<stop offset="0.789062" stop-color="#00AE84"/>
<stop offset="0.792969" stop-color="#00AF85"/>
<stop offset="0.796875" stop-color="#00B086"/>
<stop offset="0.800781" stop-color="#00B186"/>
<stop offset="0.804688" stop-color="#00B287"/>
<stop offset="0.808594" stop-color="#00B288"/>
<stop offset="0.8125" stop-color="#00B388"/>
<stop offset="0.816406" stop-color="#00B489"/>
<stop offset="0.820312" stop-color="#00B58A"/>
<stop offset="0.824219" stop-color="#00B68A"/>
<stop offset="0.828125" stop-color="#00B78B"/>
<stop offset="0.832031" stop-color="#00B88C"/>
<stop offset="0.835938" stop-color="#00B98C"/>
<stop offset="0.839844" stop-color="#00B98D"/>
<stop offset="0.84375" stop-color="#00BA8E"/>
<stop offset="0.847656" stop-color="#00BB8E"/>
<stop offset="0.851563" stop-color="#00BC8F"/>
<stop offset="0.855469" stop-color="#00BD90"/>
<stop offset="0.859375" stop-color="#00BE90"/>
<stop offset="0.863281" stop-color="#00BF91"/>
<stop offset="0.867188" stop-color="#00BF92"/>
<stop offset="0.871094" stop-color="#00C092"/>
<stop offset="0.875" stop-color="#00C193"/>
<stop offset="0.878906" stop-color="#00C294"/>
<stop offset="0.882813" stop-color="#00C394"/>
<stop offset="0.886719" stop-color="#00C495"/>
<stop offset="0.890625" stop-color="#00C596"/>
<stop offset="0.894531" stop-color="#00C696"/>
<stop offset="0.898438" stop-color="#00C697"/>
<stop offset="0.902344" stop-color="#00C797"/>
<stop offset="0.90625" stop-color="#00C898"/>
<stop offset="0.910156" stop-color="#00C999"/>
<stop offset="0.914062" stop-color="#00CA99"/>
<stop offset="0.917969" stop-color="#00CB9A"/>
<stop offset="0.921875" stop-color="#00CC9B"/>
<stop offset="0.925781" stop-color="#00CC9B"/>
<stop offset="0.929688" stop-color="#00CD9C"/>
<stop offset="0.933594" stop-color="#00CE9D"/>
<stop offset="0.9375" stop-color="#00CF9D"/>
<stop offset="0.941406" stop-color="#00D09E"/>
<stop offset="0.945312" stop-color="#00D19F"/>
<stop offset="0.949219" stop-color="#00D29F"/>
<stop offset="0.953125" stop-color="#00D3A0"/>
<stop offset="0.957031" stop-color="#00D3A1"/>
<stop offset="0.960938" stop-color="#00D4A1"/>
<stop offset="0.964844" stop-color="#00D5A2"/>
<stop offset="0.96875" stop-color="#00D6A3"/>
<stop offset="0.972656" stop-color="#00D7A3"/>
<stop offset="0.976562" stop-color="#00D8A4"/>
<stop offset="0.980469" stop-color="#00D9A5"/>
<stop offset="0.984375" stop-color="#00DAA5"/>
<stop offset="0.988281" stop-color="#00DAA6"/>
<stop offset="0.992188" stop-color="#00DBA7"/>
<stop offset="0.996094" stop-color="#00DCA7"/>
<stop offset="1" stop-color="#00DDA8"/>
</linearGradient>
</defs>
</svg>
