<svg width="161" height="121" viewBox="0 0 161 121" fill="none" xmlns="http://www.w3.org/2000/svg">
<mask id="mask0_44_2230" style="mask-type:luminance" maskUnits="userSpaceOnUse" x="0" y="0" width="161" height="121">
<path d="M0.666016 0.666626H160.666V120.667H0.666016V0.666626Z" fill="white"/>
</mask>
<g mask="url(#mask0_44_2230)">
<mask id="mask1_44_2230" style="mask-type:luminance" maskUnits="userSpaceOnUse" x="1" y="1" width="159" height="119">
<path d="M1.73828 119.359H159.421V1.44788H1.73828V119.359ZM152.171 15.9739C152.171 12.9218 152.155 9.88017 152.181 6.82808C152.103 6.05725 152.025 5.27079 151.941 4.48433H156.384V34.9843H152.171V15.9739ZM146.967 8.63017C146.853 7.24996 146.733 5.86454 146.608 4.48433H150.306C150.223 5.27079 150.145 6.05725 150.072 6.82808C150.087 9.88017 150.077 12.9218 150.082 15.9739V34.9843H146.962C146.957 26.3229 146.952 14.2656 146.967 8.63017ZM141.582 26.0416C141.587 21.151 141.566 9.49475 141.592 4.776C141.582 4.67704 141.566 4.58329 141.556 4.48433H145.217C145.098 5.86454 144.978 7.24996 144.858 8.63017C144.879 14.3645 144.874 26.3333 144.868 34.9843H141.582V26.0416ZM136.686 26.0416C136.691 21.151 136.671 9.49475 136.697 4.776C136.686 4.67704 136.671 4.58329 136.655 4.48433H139.52C139.509 4.58329 139.493 4.68225 139.483 4.78121C139.504 9.56767 139.488 21.0989 139.493 26.0416V34.9843H136.686V26.0416ZM131.316 8.63017C131.202 7.24996 131.082 5.86454 130.957 4.48433H134.624C134.613 4.58329 134.598 4.68225 134.587 4.78121C134.608 9.56767 134.592 21.0989 134.598 26.0416V34.9843H131.306C131.306 26.3229 131.301 14.2708 131.316 8.63017ZM126.098 15.9739C126.103 12.9218 126.087 9.88017 126.108 6.82808C126.03 6.05725 125.952 5.27079 125.868 4.48433H129.566C129.447 5.86454 129.327 7.24996 129.207 8.63017C129.228 14.3645 129.223 26.3333 129.223 34.9843H126.098V15.9739ZM119.113 15.9739C119.118 12.9218 119.098 9.88017 119.124 6.82808C119.046 6.05725 118.967 5.27079 118.884 4.48433H124.238C124.155 5.27079 124.077 6.05725 123.999 6.82808C124.02 9.88017 124.004 12.9218 124.009 15.9739V34.9843H119.113V15.9739ZM113.91 8.63017C113.796 7.24996 113.676 5.86454 113.551 4.48433H117.249C117.165 5.27079 117.087 6.05725 117.014 6.82808C117.035 9.88017 117.02 12.9218 117.02 15.9739V34.9843H113.9C113.9 26.3229 113.895 14.2708 113.91 8.63017ZM108.525 26.0416C108.53 21.151 108.509 9.49475 108.535 4.776C108.525 4.67704 108.509 4.58329 108.493 4.48433H112.16C112.04 5.86454 111.921 7.24996 111.801 8.63017C111.822 14.3645 111.816 26.3333 111.816 34.9843H108.525V26.0416ZM103.629 26.0416C103.634 21.151 103.613 9.49475 103.639 4.776C103.624 4.67704 103.613 4.58329 103.603 4.48433H106.462C106.452 4.58329 106.436 4.68225 106.426 4.78121C106.447 9.56767 106.431 21.0989 106.436 26.0416V34.9843H103.629V26.0416ZM98.2591 8.63017C98.1445 7.24996 98.0247 5.86454 97.8997 4.48433H101.566C101.556 4.58329 101.54 4.68225 101.53 4.78121C101.551 9.56767 101.535 21.0989 101.54 26.0416V34.9843H98.2539C98.2487 26.3229 98.2435 14.2656 98.2591 8.63017ZM93.0404 15.9739C93.0456 12.9218 93.03 9.88017 93.0508 6.82808C92.9779 6.05725 92.8997 5.27079 92.8112 4.48433H96.5143C96.3893 5.86454 96.2695 7.24996 96.155 8.63017C96.1706 14.3645 96.1602 26.3333 96.1602 34.9843H93.0404V15.9739ZM87.5977 26.4323C87.6081 21.5416 87.5872 9.88538 87.6133 5.16663C87.582 4.93746 87.556 4.7135 87.5247 4.48433H91.181C91.0977 5.27079 91.0195 6.05725 90.9414 6.82808C90.9622 9.88017 90.9518 12.9218 90.9518 15.9739V34.9843H87.5977V26.4323ZM82.2331 9.02079C82.1029 7.51038 81.9779 5.99475 81.8372 4.48433H85.5925C85.5612 4.7135 85.53 4.93746 85.5039 5.16663C85.5247 9.95829 85.5143 21.4895 85.5143 26.4323V34.9843H82.2279C82.2227 26.3593 82.2175 14.5729 82.2331 9.02079ZM77.0143 16.3645C77.0195 13.3177 77.0039 10.2708 77.0247 7.21871C76.9362 6.31767 76.8424 5.40621 76.7435 4.48433H80.5247C80.3841 5.99475 80.2539 7.51038 80.1289 9.02079C80.1445 14.6666 80.1393 26.3698 80.1341 34.9843H77.0143V16.3645ZM70.4727 15.9739C70.4727 12.9218 70.457 9.88017 70.4779 6.82808C70.405 6.05725 70.3268 5.27079 70.2435 4.48433H75.1966C75.0977 5.401 75.0039 6.31767 74.9154 7.21871C74.9362 10.2708 74.9206 13.3177 74.9258 16.3645V34.9843H70.4727V15.9739ZM65.2695 8.63017C65.1549 7.24996 65.0352 5.86454 64.9102 4.48433H68.6081C68.5247 5.27079 68.4466 6.05725 68.3737 6.82808C68.3945 9.88017 68.3737 12.9218 68.3841 15.9739V34.9843H65.2591C65.2591 26.3229 65.2539 14.2656 65.2695 8.63017ZM59.8841 26.0416C59.8893 21.151 59.8685 9.49475 59.8945 4.776C59.8789 4.67704 59.8685 4.58329 59.8581 4.48433H63.5247C63.3997 5.86454 63.2799 7.24996 63.1602 8.63017C63.181 14.3645 63.1758 26.3333 63.1758 34.9843H59.8841V26.0416ZM54.9883 26.0416C54.9935 21.151 54.9727 9.49475 54.9987 4.776C54.9883 4.67704 54.9727 4.58329 54.9622 4.48433H57.8216C57.8112 4.58329 57.7956 4.68225 57.7852 4.78121C57.806 9.56767 57.7904 21.0989 57.7956 26.0416V34.9843H54.9883V26.0416ZM49.6185 8.63017C49.5039 7.24996 49.3841 5.86454 49.2643 4.48433H52.9258C52.9154 4.58329 52.8997 4.68225 52.8893 4.78121C52.9102 9.56767 52.8945 21.0989 52.8997 26.0416V34.9843H49.6133C49.6081 26.3229 49.6029 14.2708 49.6185 8.63017ZM44.3997 15.9739C44.4049 12.9218 44.3893 9.88017 44.4102 6.82808C44.332 6.05725 44.2591 5.27079 44.1758 4.48433H47.8685C47.7487 5.86454 47.6289 7.24996 47.5143 8.63017C47.5299 14.3645 47.5247 26.3333 47.5247 34.9843H44.3997V15.9739ZM37.4102 15.9739C37.4154 12.9218 37.4049 9.88017 37.4258 6.82808C37.3477 6.05725 37.2695 5.27079 37.1862 4.48433H42.5404C42.457 5.27079 42.3789 6.05725 42.3008 6.82808C42.3216 9.88017 42.306 12.9218 42.3112 15.9739V34.9843H37.4102V15.9739ZM32.2122 8.63017C32.0977 7.24996 31.9779 5.86454 31.8529 4.48433H35.5508C35.4674 5.27079 35.3945 6.05725 35.3164 6.82808C35.3372 9.88017 35.3216 12.9218 35.3268 15.9739V34.9843H32.2018C32.2018 26.3229 32.1966 14.2708 32.2122 8.63017ZM26.8268 26.0416C26.832 21.151 26.8112 9.49475 26.8372 4.776C26.8268 4.67704 26.8112 4.58329 26.8008 4.48433H30.4622C30.3424 5.86454 30.2227 7.24996 30.1029 8.63017C30.1237 14.3645 30.1185 26.3333 30.1185 34.9843H26.8268V26.0416ZM21.931 26.0416C21.9362 21.151 21.9154 9.49475 21.9414 4.776C21.931 4.67704 21.9154 4.58329 21.9049 4.48433H24.7643C24.7539 4.58329 24.7383 4.68225 24.7279 4.78121C24.7487 9.56767 24.7331 21.0989 24.7383 26.0416V34.9843H21.931V26.0416ZM16.5664 8.63017C16.4466 7.24996 16.3268 5.86454 16.2018 4.48433H19.8685C19.8581 4.58329 19.8477 4.68225 19.832 4.78121C19.8529 9.56767 19.8372 21.0989 19.8424 26.0416V34.9843H16.556C16.5508 26.3229 16.5456 14.2656 16.5664 8.63017ZM11.3424 15.9739C11.3477 12.9218 11.332 9.88017 11.3529 6.82808C11.2799 6.05725 11.2018 5.27079 11.1185 4.48433H14.8164C14.6914 5.86454 14.5716 7.24996 14.457 8.63017C14.4727 14.3645 14.4674 26.3333 14.4674 34.9843H11.3424V15.9739ZM4.77995 4.48433H9.48307C9.39974 5.27079 9.32162 6.05725 9.2487 6.82808C9.26432 9.88017 9.25391 12.9218 9.25391 15.9739V34.9843H4.77995V4.48433ZM152.171 61.677V38.026H156.384V83.677H146.082C146.421 80.5416 146.686 77.4114 146.957 74.276V41.4531C146.962 40.4739 146.962 39.3125 146.962 38.026H150.082V61.677C150.4 64.7239 150.707 67.7708 151.124 70.8177C151.546 67.7708 151.853 64.7239 152.171 61.677ZM141.582 47.302V38.026H144.868V74.276C145.145 77.4114 145.41 80.5416 145.743 83.677H130.436C130.77 80.5416 131.035 77.4114 131.306 74.276V41.4531C131.311 40.4739 131.311 39.3125 131.311 38.026H134.598V47.302C134.9 49.6302 135.238 52.0729 135.639 54.3906C136.046 52.0729 136.384 49.6302 136.686 47.302V38.026H139.493V47.302C139.79 49.6302 140.134 52.0729 140.535 54.3906C140.936 52.0729 141.28 49.6302 141.582 47.302ZM126.098 61.677V38.026H129.223V74.276C129.493 77.4114 129.759 80.5416 130.092 83.677H113.03C113.363 80.5416 113.629 77.4114 113.9 74.276V41.4531C113.905 40.4739 113.905 39.3125 113.905 38.026H117.02V61.677C117.342 64.7239 117.65 67.7708 118.066 70.8177C118.488 67.7708 118.796 64.7239 119.113 61.677V38.026H124.009V61.677C124.327 64.7239 124.634 67.7708 125.056 70.8177C125.473 67.7708 125.785 64.7239 126.098 61.677ZM108.525 47.302V38.026H111.816V74.276C112.087 77.4114 112.353 80.5416 112.686 83.677H97.3789C97.7122 80.5416 97.9779 77.4114 98.2487 74.276V41.4531C98.2539 40.4739 98.2539 39.3125 98.2539 38.026H101.54V47.302C101.842 49.6302 102.181 52.0729 102.582 54.3906C102.983 52.0729 103.327 49.6302 103.629 47.302V38.026H106.436V47.302C106.738 49.6302 107.077 52.0729 107.478 54.3906C107.884 52.0729 108.223 49.6302 108.525 47.302ZM93.0404 61.677V38.026H96.1602V74.276C96.4362 77.4114 96.7018 80.5416 97.0352 83.677H81.3893C81.707 80.6718 81.9622 77.6718 82.2227 74.6718V41.8437C82.2279 40.7656 82.2279 39.4687 82.2279 38.026H85.5143V47.6927C85.8164 50.0208 86.155 52.4635 86.556 54.7812C86.9622 52.4635 87.3008 50.0208 87.5977 47.6927V38.026H90.9518V61.677C91.2695 64.7239 91.5768 67.7708 91.9987 70.8177C92.4154 67.7708 92.7227 64.7239 93.0404 61.677ZM77.0143 62.0677V38.026H80.1341V74.6718C80.3997 77.6718 80.655 80.6718 80.9675 83.677H64.3841C64.7227 80.5416 64.9883 77.4114 65.2591 74.276V41.4531V38.026H68.3841V61.677C68.7018 64.7239 69.0091 67.7708 69.4258 70.8177C69.8477 67.7708 70.155 64.7239 70.4727 61.677V38.026H74.9258V62.0677C75.2435 65.1145 75.5508 68.1614 75.9675 71.2083C76.3893 68.1614 76.6966 65.1145 77.0143 62.0677ZM59.8841 47.302V38.026H63.1758V74.276C63.4466 77.4114 63.7122 80.5416 64.0456 83.677H48.7383C49.0716 80.5416 49.3372 77.4114 49.6133 74.276C49.6133 67.302 49.6081 48.6614 49.6133 41.4531V38.026H52.8997V47.302C53.2018 49.6302 53.5404 52.0729 53.9466 54.3906C54.3477 52.0729 54.6862 49.6302 54.9883 47.302V38.026H57.7956V47.302C58.0924 49.6302 58.4362 52.0729 58.8372 54.3906C59.2435 52.0729 59.582 49.6302 59.8841 47.302ZM44.3997 61.677V38.026H47.5247V74.276C47.7956 77.4114 48.0612 80.5416 48.3945 83.677H31.332C31.6654 80.5416 31.931 77.4114 32.2018 74.276V41.4531C32.207 40.4739 32.207 39.3125 32.207 38.026H35.3268V61.677C35.6445 64.7239 35.9518 67.7708 36.3685 70.8177C36.7904 67.7708 37.0977 64.7239 37.4102 61.677V38.026H42.3112V61.677C42.6289 64.7239 42.9362 67.7708 43.3581 70.8177C43.7747 67.7708 44.082 64.7239 44.3997 61.677ZM26.8268 47.302V38.026H30.1185V74.276C30.3893 77.4114 30.6549 80.5416 30.9883 83.677H15.681C16.0143 80.5416 16.28 77.4114 16.5508 74.276V41.4531C16.556 40.4739 16.556 39.3125 16.556 38.026H19.8424V47.302C20.1393 49.6302 20.4831 52.0729 20.8841 54.3906C21.2904 52.0729 21.6289 49.6302 21.931 47.302V38.026H24.7383V47.302C25.0404 49.6302 25.3789 52.0729 25.7799 54.3906C26.1862 52.0729 26.5247 49.6302 26.8268 47.302ZM11.3424 61.677V38.026H14.4674V74.276C14.7383 77.4114 15.0039 80.5416 15.3372 83.677H4.77995V38.026H9.25391V61.677C9.57162 64.7239 9.88412 67.7708 10.3008 70.8177C10.7174 67.7708 11.0247 64.7239 11.3424 61.677ZM145.91 85.1927H145.921C145.915 85.2031 145.915 85.2083 145.915 85.2187C145.91 85.2083 145.91 85.2031 145.91 85.1927ZM130.259 85.1927H130.27C130.264 85.2031 130.264 85.2083 130.264 85.2187C130.264 85.2083 130.264 85.2031 130.259 85.1927ZM112.853 85.1927H112.863C112.858 85.2031 112.858 85.2083 112.858 85.2187C112.858 85.2083 112.858 85.2031 112.853 85.1927ZM97.2018 85.1927H97.2122C97.207 85.2031 97.207 85.2083 97.207 85.2187C97.2018 85.2083 97.2018 85.2031 97.2018 85.1927ZM132.087 86.7083H154.556V115.526H132.087V86.7083ZM123.582 86.7083H129.051V116.323H123.582V86.7083ZM98.0768 86.7083H120.546V115.526H98.0768V86.7083ZM65.5299 86.7083H95.0404V116.323H65.5299V86.7083ZM40.0247 86.7083H62.4935V115.526H40.0247V86.7083ZM31.5195 86.7083H36.9883V116.323H31.5195V86.7083ZM6.01432 86.7083H28.4831V115.526H6.01432V86.7083Z" fill="white"/>
</mask>
<g mask="url(#mask1_44_2230)">
<path d="M1.73828 1.44788V119.359H159.421V1.44788H1.73828Z" fill="url(#paint0_linear_44_2230)"/>
</g>
</g>
<defs>
<linearGradient id="paint0_linear_44_2230" x1="1.74003" y1="60.4036" x2="159.421" y2="60.4036" gradientUnits="userSpaceOnUse">
<stop/>
<stop offset="0.00390625" stop-color="#000101"/>
<stop offset="0.0078125" stop-color="#000201"/>
<stop offset="0.0117188" stop-color="#000302"/>
<stop offset="0.015625" stop-color="#000303"/>
<stop offset="0.0195312" stop-color="#000403"/>
<stop offset="0.0234375" stop-color="#000504"/>
<stop offset="0.0273438" stop-color="#000605"/>
<stop offset="0.03125" stop-color="#000705"/>
<stop offset="0.0351562" stop-color="#000806"/>
<stop offset="0.0390625" stop-color="#000907"/>
<stop offset="0.0429688" stop-color="#000907"/>
<stop offset="0.046875" stop-color="#000A08"/>
<stop offset="0.0507812" stop-color="#000B09"/>
<stop offset="0.0546875" stop-color="#000C09"/>
<stop offset="0.0585938" stop-color="#000D0A"/>
<stop offset="0.0625" stop-color="#000E0A"/>
<stop offset="0.0664062" stop-color="#000F0B"/>
<stop offset="0.0703125" stop-color="#00100C"/>
<stop offset="0.0742188" stop-color="#00100C"/>
<stop offset="0.078125" stop-color="#00110D"/>
<stop offset="0.0820312" stop-color="#00120E"/>
<stop offset="0.0859375" stop-color="#00130E"/>
<stop offset="0.0898438" stop-color="#00140F"/>
<stop offset="0.09375" stop-color="#001510"/>
<stop offset="0.0976562" stop-color="#001610"/>
<stop offset="0.101562" stop-color="#001611"/>
<stop offset="0.105469" stop-color="#001712"/>
<stop offset="0.109375" stop-color="#001812"/>
<stop offset="0.113281" stop-color="#001913"/>
<stop offset="0.117188" stop-color="#001A14"/>
<stop offset="0.121094" stop-color="#001B14"/>
<stop offset="0.125" stop-color="#001C15"/>
<stop offset="0.128906" stop-color="#001C16"/>
<stop offset="0.132812" stop-color="#001D16"/>
<stop offset="0.136719" stop-color="#001E17"/>
<stop offset="0.140625" stop-color="#001F18"/>
<stop offset="0.144531" stop-color="#002018"/>
<stop offset="0.148438" stop-color="#002119"/>
<stop offset="0.152344" stop-color="#00221A"/>
<stop offset="0.15625" stop-color="#00231A"/>
<stop offset="0.160156" stop-color="#00231B"/>
<stop offset="0.164062" stop-color="#00241C"/>
<stop offset="0.167969" stop-color="#00251C"/>
<stop offset="0.171875" stop-color="#00261D"/>
<stop offset="0.175781" stop-color="#00271E"/>
<stop offset="0.179688" stop-color="#00281E"/>
<stop offset="0.183594" stop-color="#00291F"/>
<stop offset="0.1875" stop-color="#00291F"/>
<stop offset="0.191406" stop-color="#002A20"/>
<stop offset="0.195312" stop-color="#002B21"/>
<stop offset="0.199219" stop-color="#002C21"/>
<stop offset="0.203125" stop-color="#002D22"/>
<stop offset="0.207031" stop-color="#002E23"/>
<stop offset="0.210938" stop-color="#002F23"/>
<stop offset="0.214844" stop-color="#002F24"/>
<stop offset="0.21875" stop-color="#003025"/>
<stop offset="0.222656" stop-color="#003125"/>
<stop offset="0.226562" stop-color="#003226"/>
<stop offset="0.230469" stop-color="#003327"/>
<stop offset="0.234375" stop-color="#003427"/>
<stop offset="0.238281" stop-color="#003528"/>
<stop offset="0.242188" stop-color="#003629"/>
<stop offset="0.246094" stop-color="#003629"/>
<stop offset="0.25" stop-color="#00372A"/>
<stop offset="0.253906" stop-color="#00382B"/>
<stop offset="0.257812" stop-color="#00392B"/>
<stop offset="0.261719" stop-color="#003A2C"/>
<stop offset="0.265625" stop-color="#003B2D"/>
<stop offset="0.269531" stop-color="#003C2D"/>
<stop offset="0.273438" stop-color="#003C2E"/>
<stop offset="0.277344" stop-color="#003D2F"/>
<stop offset="0.28125" stop-color="#003E2F"/>
<stop offset="0.285156" stop-color="#003F30"/>
<stop offset="0.289062" stop-color="#004031"/>
<stop offset="0.292969" stop-color="#004131"/>
<stop offset="0.296875" stop-color="#004232"/>
<stop offset="0.300781" stop-color="#004233"/>
<stop offset="0.304688" stop-color="#004333"/>
<stop offset="0.308594" stop-color="#004434"/>
<stop offset="0.3125" stop-color="#004534"/>
<stop offset="0.316406" stop-color="#004635"/>
<stop offset="0.320312" stop-color="#004736"/>
<stop offset="0.324219" stop-color="#004836"/>
<stop offset="0.328125" stop-color="#004937"/>
<stop offset="0.332031" stop-color="#004938"/>
<stop offset="0.335938" stop-color="#004A38"/>
<stop offset="0.339844" stop-color="#004B39"/>
<stop offset="0.34375" stop-color="#004C3A"/>
<stop offset="0.347656" stop-color="#004D3A"/>
<stop offset="0.351562" stop-color="#004E3B"/>
<stop offset="0.355469" stop-color="#004F3C"/>
<stop offset="0.359375" stop-color="#004F3C"/>
<stop offset="0.363281" stop-color="#00503D"/>
<stop offset="0.367188" stop-color="#00513E"/>
<stop offset="0.371094" stop-color="#00523E"/>
<stop offset="0.375" stop-color="#00533F"/>
<stop offset="0.378906" stop-color="#005440"/>
<stop offset="0.382812" stop-color="#005540"/>
<stop offset="0.386719" stop-color="#005541"/>
<stop offset="0.390625" stop-color="#005642"/>
<stop offset="0.394531" stop-color="#005742"/>
<stop offset="0.398438" stop-color="#005843"/>
<stop offset="0.402344" stop-color="#005944"/>
<stop offset="0.40625" stop-color="#005A44"/>
<stop offset="0.410156" stop-color="#005B45"/>
<stop offset="0.414062" stop-color="#005C46"/>
<stop offset="0.417969" stop-color="#005C46"/>
<stop offset="0.421875" stop-color="#005D47"/>
<stop offset="0.425781" stop-color="#005E48"/>
<stop offset="0.429688" stop-color="#005F48"/>
<stop offset="0.433594" stop-color="#006049"/>
<stop offset="0.4375" stop-color="#006149"/>
<stop offset="0.441406" stop-color="#00624A"/>
<stop offset="0.445312" stop-color="#00624B"/>
<stop offset="0.449219" stop-color="#00634B"/>
<stop offset="0.453125" stop-color="#00644C"/>
<stop offset="0.457031" stop-color="#00654D"/>
<stop offset="0.460938" stop-color="#00664D"/>
<stop offset="0.464844" stop-color="#00674E"/>
<stop offset="0.46875" stop-color="#00684F"/>
<stop offset="0.472656" stop-color="#00684F"/>
<stop offset="0.476562" stop-color="#006950"/>
<stop offset="0.480469" stop-color="#006A51"/>
<stop offset="0.484375" stop-color="#006B51"/>
<stop offset="0.488281" stop-color="#006C52"/>
<stop offset="0.492188" stop-color="#006D53"/>
<stop offset="0.496094" stop-color="#006E53"/>
<stop offset="0.5" stop-color="#006E54"/>
<stop offset="0.503906" stop-color="#006F55"/>
<stop offset="0.507812" stop-color="#007055"/>
<stop offset="0.511719" stop-color="#007156"/>
<stop offset="0.515625" stop-color="#007257"/>
<stop offset="0.519531" stop-color="#007357"/>
<stop offset="0.523437" stop-color="#007458"/>
<stop offset="0.527344" stop-color="#007559"/>
<stop offset="0.53125" stop-color="#007559"/>
<stop offset="0.535156" stop-color="#00765A"/>
<stop offset="0.539062" stop-color="#00775B"/>
<stop offset="0.542969" stop-color="#00785B"/>
<stop offset="0.546875" stop-color="#00795C"/>
<stop offset="0.550781" stop-color="#007A5D"/>
<stop offset="0.554688" stop-color="#007B5D"/>
<stop offset="0.558594" stop-color="#007B5E"/>
<stop offset="0.5625" stop-color="#007C5E"/>
<stop offset="0.566406" stop-color="#007D5F"/>
<stop offset="0.570312" stop-color="#007E60"/>
<stop offset="0.574219" stop-color="#007F60"/>
<stop offset="0.578125" stop-color="#008061"/>
<stop offset="0.582031" stop-color="#008162"/>
<stop offset="0.585938" stop-color="#008162"/>
<stop offset="0.589844" stop-color="#008263"/>
<stop offset="0.59375" stop-color="#008364"/>
<stop offset="0.597656" stop-color="#008464"/>
<stop offset="0.601563" stop-color="#008565"/>
<stop offset="0.605469" stop-color="#008666"/>
<stop offset="0.609375" stop-color="#008766"/>
<stop offset="0.613281" stop-color="#008867"/>
<stop offset="0.617188" stop-color="#008868"/>
<stop offset="0.621094" stop-color="#008968"/>
<stop offset="0.625" stop-color="#008A69"/>
<stop offset="0.628906" stop-color="#008B6A"/>
<stop offset="0.632812" stop-color="#008C6A"/>
<stop offset="0.636719" stop-color="#008D6B"/>
<stop offset="0.640625" stop-color="#008E6C"/>
<stop offset="0.644531" stop-color="#008E6C"/>
<stop offset="0.648437" stop-color="#008F6D"/>
<stop offset="0.652344" stop-color="#00906E"/>
<stop offset="0.65625" stop-color="#00916E"/>
<stop offset="0.660156" stop-color="#00926F"/>
<stop offset="0.664062" stop-color="#009370"/>
<stop offset="0.667969" stop-color="#009470"/>
<stop offset="0.671875" stop-color="#009471"/>
<stop offset="0.675781" stop-color="#009572"/>
<stop offset="0.679688" stop-color="#009672"/>
<stop offset="0.683594" stop-color="#009773"/>
<stop offset="0.6875" stop-color="#009873"/>
<stop offset="0.691406" stop-color="#009974"/>
<stop offset="0.695312" stop-color="#009A75"/>
<stop offset="0.699219" stop-color="#009B75"/>
<stop offset="0.703125" stop-color="#009B76"/>
<stop offset="0.707031" stop-color="#009C77"/>
<stop offset="0.710938" stop-color="#009D77"/>
<stop offset="0.714844" stop-color="#009E78"/>
<stop offset="0.71875" stop-color="#009F79"/>
<stop offset="0.722656" stop-color="#00A079"/>
<stop offset="0.726563" stop-color="#00A17A"/>
<stop offset="0.730469" stop-color="#00A17B"/>
<stop offset="0.734375" stop-color="#00A27B"/>
<stop offset="0.738281" stop-color="#00A37C"/>
<stop offset="0.742188" stop-color="#00A47D"/>
<stop offset="0.746094" stop-color="#00A57D"/>
<stop offset="0.75" stop-color="#00A67E"/>
<stop offset="0.753906" stop-color="#00A77F"/>
<stop offset="0.757812" stop-color="#00A77F"/>
<stop offset="0.761719" stop-color="#00A880"/>
<stop offset="0.765625" stop-color="#00A981"/>
<stop offset="0.769531" stop-color="#00AA81"/>
<stop offset="0.773437" stop-color="#00AB82"/>
<stop offset="0.777344" stop-color="#00AC83"/>
<stop offset="0.78125" stop-color="#00AD83"/>
<stop offset="0.785156" stop-color="#00AE84"/>
<stop offset="0.789062" stop-color="#00AE85"/>
<stop offset="0.792969" stop-color="#00AF85"/>
<stop offset="0.796875" stop-color="#00B086"/>
<stop offset="0.800781" stop-color="#00B187"/>
<stop offset="0.804688" stop-color="#00B287"/>
<stop offset="0.808594" stop-color="#00B388"/>
<stop offset="0.8125" stop-color="#00B488"/>
<stop offset="0.816406" stop-color="#00B489"/>
<stop offset="0.820312" stop-color="#00B58A"/>
<stop offset="0.824219" stop-color="#00B68A"/>
<stop offset="0.828125" stop-color="#00B78B"/>
<stop offset="0.832031" stop-color="#00B88C"/>
<stop offset="0.835938" stop-color="#00B98C"/>
<stop offset="0.839844" stop-color="#00BA8D"/>
<stop offset="0.84375" stop-color="#00BA8E"/>
<stop offset="0.847656" stop-color="#00BB8E"/>
<stop offset="0.851563" stop-color="#00BC8F"/>
<stop offset="0.855469" stop-color="#00BD90"/>
<stop offset="0.859375" stop-color="#00BE90"/>
<stop offset="0.863281" stop-color="#00BF91"/>
<stop offset="0.867188" stop-color="#00C092"/>
<stop offset="0.871094" stop-color="#00C192"/>
<stop offset="0.875" stop-color="#00C193"/>
<stop offset="0.878906" stop-color="#00C294"/>
<stop offset="0.882812" stop-color="#00C394"/>
<stop offset="0.886719" stop-color="#00C495"/>
<stop offset="0.890625" stop-color="#00C596"/>
<stop offset="0.894531" stop-color="#00C696"/>
<stop offset="0.898437" stop-color="#00C797"/>
<stop offset="0.902344" stop-color="#00C798"/>
<stop offset="0.90625" stop-color="#00C898"/>
<stop offset="0.910156" stop-color="#00C999"/>
<stop offset="0.914062" stop-color="#00CA9A"/>
<stop offset="0.917969" stop-color="#00CB9A"/>
<stop offset="0.921875" stop-color="#00CC9B"/>
<stop offset="0.925781" stop-color="#00CD9C"/>
<stop offset="0.929688" stop-color="#00CD9C"/>
<stop offset="0.933594" stop-color="#00CE9D"/>
<stop offset="0.9375" stop-color="#00CF9D"/>
<stop offset="0.941406" stop-color="#00D09E"/>
<stop offset="0.945312" stop-color="#00D19F"/>
<stop offset="0.949219" stop-color="#00D29F"/>
<stop offset="0.953125" stop-color="#00D3A0"/>
<stop offset="0.957031" stop-color="#00D3A1"/>
<stop offset="0.960938" stop-color="#00D4A1"/>
<stop offset="0.964844" stop-color="#00D5A2"/>
<stop offset="0.96875" stop-color="#00D6A3"/>
<stop offset="0.972656" stop-color="#00D7A3"/>
<stop offset="0.976563" stop-color="#00D8A4"/>
<stop offset="0.980469" stop-color="#00D9A5"/>
<stop offset="0.984375" stop-color="#00DAA5"/>
<stop offset="0.988281" stop-color="#00DAA6"/>
<stop offset="0.992188" stop-color="#00DBA7"/>
<stop offset="0.996094" stop-color="#00DCA7"/>
<stop offset="1" stop-color="#00DDA8"/>
</linearGradient>
</defs>
</svg>
